<svg width="24" height="31" viewBox="0 0 24 31" fill="none" xmlns="http://www.w3.org/2000/svg">
<path d="M13.2215 3.5557C13.7217 3.17905 14.2188 2.8892 14.6617 2.6846C14.7979 5.98145 16.4069 8.4599 17.9586 10.6516L18.3798 11.2437C20.057 13.5966 21.4941 15.6131 21.6505 18.2807C21.8317 21.3528 21.0667 23.949 19.5815 25.7579C18.1181 27.5435 15.8572 28.675 12.7755 28.675C9.58381 28.675 7.18503 27.855 5.50945 26.4802C3.84316 25.1115 2.77927 23.0996 2.4231 20.4786C2.07311 17.9009 2.69565 16.0688 3.36929 14.8939C3.50247 14.663 3.6372 14.4568 3.76883 14.2739L4.25663 15.2008C4.66736 15.9816 5.3637 16.5731 6.20008 16.8519C7.03646 17.1306 7.94812 17.075 8.74447 16.6966C10.7669 15.7356 11.1974 13.2664 10.5563 11.5351C10.1072 10.323 9.8672 8.84275 10.386 7.3594C10.9698 5.6978 12.0755 4.42215 13.2215 3.5557ZM3.33832 11.3522H3.33522L3.32903 11.3584L3.31354 11.3708C3.24627 11.4218 3.18117 11.4756 3.11842 11.532C2.95569 11.6751 2.79963 11.8256 2.65074 11.983C2.27908 12.3752 1.80211 12.958 1.35456 13.7376C0.453282 15.3109 -0.303982 17.656 0.121882 20.7917C0.541552 23.887 1.84082 26.474 4.03673 28.2782C6.22645 30.0762 9.19046 31 12.7755 31C16.472 31 19.4236 29.6127 21.3764 27.2335C23.3121 24.8759 24.1762 21.6597 23.9703 18.1443C23.772 14.7715 21.937 12.2124 20.3156 9.95255L19.8525 9.3062C18.0841 6.8076 16.6888 4.50585 17.0279 1.28495C17.0451 1.12284 17.028 0.958938 16.9777 0.803875C16.9275 0.648813 16.8452 0.50606 16.7363 0.384886C16.6273 0.263712 16.4941 0.166826 16.3454 0.100518C16.1966 0.0342097 16.0355 -3.74133e-05 15.8727 3.06712e-08C15.2811 3.06712e-08 14.6028 0.1829 13.9493 0.4588C13.1925 0.783399 12.4784 1.19985 11.8231 1.6988C10.3906 2.7807 8.95817 4.4113 8.19472 6.5906C7.43281 8.7637 7.81995 10.8345 8.37745 12.3427C8.74447 13.3331 8.34648 14.3111 7.74717 14.5963C7.49217 14.7171 7.20041 14.7345 6.93288 14.645C6.66535 14.5554 6.44276 14.3658 6.31162 14.1159L5.06345 11.7428C4.98533 11.5939 4.87588 11.4638 4.74264 11.3614C4.60939 11.2589 4.45554 11.1867 4.29168 11.1495C4.12783 11.1124 3.95787 11.1113 3.79355 11.1463C3.62922 11.1813 3.47289 11.2515 3.33832 11.3522Z" fill="white"/>
</svg>
