<svg width="21" height="26" viewBox="0 0 21 26" fill="none" xmlns="http://www.w3.org/2000/svg">
<path d="M11.5252 3.12977C11.945 2.8159 12.3622 2.57435 12.7339 2.40385C12.8483 5.15123 14.1987 7.2166 15.501 9.04302L15.8545 9.53644C17.2621 11.4972 18.4682 13.1776 18.5995 15.4006C18.7516 17.9607 18.1095 20.1242 16.8631 21.6316C15.6349 23.1196 13.7373 24.0625 11.1508 24.0625C8.47213 24.0625 6.45887 23.3792 5.05258 22.2335C3.65408 21.093 2.76118 19.4164 2.46224 17.2322C2.16851 15.0841 2.69099 13.5574 3.25637 12.5783C3.36815 12.3859 3.48122 12.2141 3.5917 12.0616L4.00111 12.8341C4.34582 13.4846 4.93025 13.9776 5.63222 14.2099C6.33418 14.4422 7.09932 14.3959 7.76768 14.0805C9.46511 13.2797 9.82643 11.2221 9.28835 9.77927C8.91143 8.76919 8.70997 7.53565 9.14538 6.29952C9.63537 4.91485 10.5634 3.85181 11.5252 3.12977ZM3.23038 9.62685H3.22778L3.22258 9.63202L3.20958 9.64235C3.15312 9.68483 3.09848 9.72965 3.04582 9.77669C2.90924 9.89592 2.77827 10.0213 2.6533 10.1526C2.34137 10.4794 1.94106 10.965 1.56544 11.6147C0.809006 12.9258 0.173446 14.8801 0.530867 17.4931C0.88309 20.0726 1.97355 22.2284 3.81655 23.7319C5.65434 25.2302 8.142 26 11.1508 26C14.2533 26 16.7305 24.844 18.3695 22.8613C19.9941 20.8966 20.7193 18.2164 20.5465 15.2869C20.3801 12.4763 18.84 10.3437 17.4792 8.46048L17.0905 7.92185C15.6063 5.83969 14.4352 3.92156 14.7199 1.23748C14.7343 1.10239 14.7199 0.965802 14.6777 0.836583C14.6356 0.707364 14.5665 0.588404 14.4751 0.487426C14.3837 0.386447 14.2719 0.305708 14.147 0.250452C14.0221 0.195195 13.887 0.166656 13.7503 0.166687C13.2538 0.166687 12.6845 0.319104 12.136 0.54902C11.5008 0.81952 10.9015 1.16656 10.3515 1.58235C9.14928 2.48394 7.94704 3.84277 7.30628 5.65885C6.66682 7.46977 6.99175 9.19544 7.45965 10.4522C7.76768 11.2776 7.43365 12.0926 6.93066 12.3303C6.71665 12.4309 6.47178 12.4454 6.24724 12.3708C6.02271 12.2962 5.83589 12.1382 5.72583 11.9299L4.67826 9.95235C4.61269 9.82829 4.52083 9.71985 4.409 9.6345C4.29717 9.54914 4.16804 9.48892 4.03052 9.45797C3.893 9.42703 3.75036 9.4261 3.61244 9.45526C3.47453 9.48442 3.34332 9.54296 3.23038 9.62685Z" fill="white"/>
</svg>
